<svg width="165" height="148" viewBox="0 0 165 148" fill="none" xmlns="http://www.w3.org/2000/svg">
<path fill-rule="evenodd" clip-rule="evenodd" d="M37.1991 96.7885C39.6268 97.3582 41.9257 97.002 44.1027 95.749C41.7135 95.4597 39.4809 96.3041 37.1991 96.7885ZM56.4967 73.2391C56.6615 81.1601 54.2774 86.99 51.0488 92.4644C48.7859 96.3018 45.0901 98.2217 40.6325 98.4491C36.8362 98.643 33.098 98.3474 29.4772 96.9706C26.7476 95.9336 24.9382 93.9296 23.4281 91.6169C20.6208 87.3159 17.3241 83.1742 17.2111 77.7055C17.0689 70.877 18.4754 64.4541 22.9854 59.0624C24.8953 56.78 27.1619 55.2478 30.4543 55.7613C33.722 56.2709 35.0407 60.2504 35.016 62.6345C35.0047 63.7379 34.0838 64.2936 33.5407 64.941C31.0669 67.8904 30.5623 71.5819 29.3958 75.0239C29.1551 75.7325 29.6433 75.9276 30.1865 76.0457C33.7106 76.8112 36.9107 76.5857 39.3075 73.3723C40.5782 71.6696 41.9525 70.0554 42.7924 68.0704C43.1922 67.1268 43.2112 66.2616 42.86 65.2568C42.4451 64.0656 41.6051 62.6004 43.6987 61.9487C44.1269 61.8154 44.0391 61.451 43.8389 61.1024C42.9604 59.5778 43.4676 58.0923 45.1223 57.2884C48.4733 55.6596 53.6812 58.6361 54.0045 62.3554C54.0386 62.7463 54.0633 63.2004 54.2711 63.5036C56.5971 66.8913 56.1411 70.8423 56.4967 73.2391Z" fill="#004680"/>
<path fill-rule="evenodd" clip-rule="evenodd" d="M102.539 74.1026C100.625 73.8039 98.7621 73.9397 97.002 74.7645C98.9036 75.0032 100.798 75.2154 102.539 74.1026ZM91.9863 36.0295C91.1855 36.7223 90.0727 36.3794 89.5997 37.3716C90.2243 37.849 90.7984 37.1846 91.3428 37.3027C92.1019 37.4682 93.6593 37.2004 92.4278 38.8273C92.3368 38.948 92.1246 39.0686 92.3823 39.1955C94.5151 40.249 92.9185 41.6037 92.5831 42.75C92.2345 43.948 91.6983 45.0956 91.6699 46.3656C91.6308 48.1422 91.6131 49.9194 91.6371 51.6948C91.6661 53.8743 92.0046 54.1541 94.1652 53.9488C97.8921 53.5945 100.507 50.9085 100.417 47.174C100.343 44.1122 100.951 41.1824 101.64 38.2602C101.996 36.7546 102.941 35.5476 104.614 35.2603C106.584 34.9211 109.441 36.1331 110.175 37.8819C111.411 40.825 112.523 43.8666 112.961 47.0282C113.824 53.2699 113.647 59.4958 111.898 65.6144C111.214 68.0036 110.282 70.3321 108.839 72.3039C106.941 74.8964 104.091 76.0629 100.912 76.3951C96.8948 76.8145 93.0246 76.6837 89.6666 73.9434C88.9308 73.3428 88.4666 72.5584 87.9658 71.8656C84.6678 67.3013 80.7167 63.0136 79.9349 57.1312C79.0343 50.3571 80.0776 43.8596 83.5676 37.892C84.7783 35.8211 86.4349 34.2662 89.1159 34.5687C90.2104 34.6925 91.2297 35.0171 91.9863 36.0295Z" fill="#004680"/>
<path fill-rule="evenodd" clip-rule="evenodd" d="M77.956 128.435C79.7578 129.35 82.8247 129.251 84.2842 128.297C82.1811 128.18 80.174 128.028 77.956 128.435ZM97.6267 109.291C97.8004 115.109 96.1286 120.948 92.2193 126.08C90.5943 128.213 88.3825 129.549 85.795 130.127C81.3501 131.119 77.0252 130.703 72.8866 128.702C70.4791 127.538 68.9418 125.557 67.3699 123.463C64.4489 119.572 63.0064 115.075 61.7932 110.53C60.405 105.33 61.3858 100.318 63.7826 95.4817C64.6062 93.8194 65.1702 92.1464 66.8792 91.1511C68.1802 90.3932 69.4212 90.7216 70.6704 91.177C70.9698 91.2862 71.4359 91.6424 71.4112 91.8306C71.0626 94.4958 73.3337 96.7221 72.6434 99.4403C72.3763 100.493 72.2304 101.579 72.0624 102.654C71.5957 105.642 73.2219 107.847 76.2907 108.18C79.2792 108.505 81.9015 107.593 83.7444 105.147C85.2633 103.132 86.3527 100.857 86.935 98.373C87.4182 96.3116 89.0444 95.2025 91.1463 95.5171C94.6382 96.0394 95.5059 96.9753 95.8811 100.614C95.9038 100.84 95.8924 101.123 96.0213 101.276C97.861 103.478 97.2977 106.172 97.6267 109.291Z" fill="#004680"/>
<path fill-rule="evenodd" clip-rule="evenodd" d="M145.715 47.4315C146.913 47.7265 148.11 48.2077 149.215 47.3153C148.033 47.1966 146.853 46.8947 145.715 47.4315ZM143.3 21.4689C145.874 22.2704 143.834 23.7823 143.843 24.9324C143.847 25.497 143.194 26.1355 143.811 26.7336C144.413 27.3159 145.173 27.2723 145.908 26.9774C149.19 25.6618 150.964 23.0118 151.657 19.7574C152.166 17.3663 153.003 15.0813 153.512 12.6978C153.969 10.5593 156.15 9.42694 158.302 9.91388C160.872 10.4955 162.48 11.8982 162.836 14.6057C163.259 17.8242 164.168 20.9321 164.071 24.2743C163.848 32.0469 161.647 39.0276 156.822 45.1493C152.321 50.8592 143.693 51.1074 139.06 45.4638C137.558 43.6329 136.165 41.5323 135.893 38.9815C135.848 38.5609 135.566 38.1447 135.329 37.767C131.37 31.4867 131.779 25.0088 134.713 18.5688C136.721 14.1618 140.174 14.3746 142.981 16.4739C143.332 16.7366 143.817 17.0499 143.736 17.552C143.633 18.1968 142.988 17.8766 142.594 18.0105C142.219 18.1381 141.701 18.1545 141.765 18.6863C141.831 19.242 142.359 19.0766 142.738 19.1164C143.427 19.1883 144.151 19.2338 144.416 20.046C144.701 20.9214 143.708 20.9239 143.3 21.4689Z" fill="#004680"/>
<path fill-rule="evenodd" clip-rule="evenodd" d="M23.2655 137.637C22.8891 138.193 23.1266 138.687 23.6874 138.743C24.5684 138.829 24.0221 138.174 24.0518 137.801C24.0941 137.269 24.343 137.606 24.6076 137.656C25.1893 137.764 25.1419 137.223 24.9038 137.067C24.5084 136.807 23.9615 136.593 23.5112 136.646C22.9807 136.706 23.1247 137.229 23.2655 137.637ZM21.0558 144.604C19.7106 144.188 18.1765 145.806 17.3542 143.702C17.3504 144.611 16.8167 145.958 17.874 145.904C18.8396 145.855 20.2922 145.938 21.0558 144.604ZM29.16 139.705C30.1573 140.298 30.3556 139.07 31.409 139.122C29.9823 140.234 29.1645 141.447 28.6093 142.972C28.2424 143.979 26.7134 144.593 25.7382 145.07C22.283 146.762 18.5599 147.889 14.66 147.999C13.4796 148.032 12.3403 147.292 11.1005 147.207C10.7166 147.181 10.3553 146.868 10.3825 146.386C10.3888 146.265 10.6016 146.045 10.6894 146.059C11.4024 146.173 11.9026 146.114 11.5508 145.195C11.3936 144.784 11.4511 144.216 10.9041 144.062C9.94352 143.793 10.6976 145.156 9.95805 145.093C9.25196 145.692 10.174 142.748 8.89387 144.631C8.81303 144.568 8.6924 144.519 8.65766 144.436C7.89726 142.602 6.11374 141.581 5.12218 139.864C4.17737 138.229 2.96414 136.749 2.25111 134.951C0.106957 129.553 -0.571971 123.997 0.502315 118.285C1.06061 115.314 2.94646 114.104 5.66722 114.633C6.59877 114.813 7.31939 115.28 7.69011 116.074C9.09155 119.079 11.206 121.877 10.1077 125.587C9.76795 126.734 10.4197 127.961 11.2363 128.898C11.7409 129.478 12.3573 129.822 13.21 129.387C14.8406 128.555 16.4612 127.758 17.6145 126.236C18.438 125.149 19.4195 124.181 20.2967 123.133C21.508 121.685 21.839 119.846 21.9741 118.106C22.1806 115.452 23.8897 114.208 26.3673 115.326C27.3746 115.781 28.3554 116.46 28.7798 117.453C29.9034 120.079 31.1804 122.604 31.7867 125.497C32.3791 128.323 32.5477 131.068 32.4037 133.892C32.3412 135.121 31.5524 136.191 31.6616 137.478C31.6819 137.716 31.1305 138.208 30.8172 138.231C29.803 138.307 29.7404 139.209 29.16 139.705Z" fill="#004680"/>
<path fill-rule="evenodd" clip-rule="evenodd" d="M130.125 87.8642C129.081 88.9397 128.773 89.0433 128.422 88.3587C127.947 87.4315 126.589 87.1158 125.888 87.7877C125.458 88.1995 125.465 88.7364 125.838 89.1203C126.417 89.7178 129.806 88.7515 130.125 87.8642ZM132.835 100.742C132.179 100.123 131.099 100.557 130.762 100.133C129.59 98.6561 128.801 100.474 127.812 100.36C127.639 100.34 126.974 100.982 127.165 101.428C127.36 101.882 128.205 102.234 128.45 102.024C129.713 100.941 131.428 101.582 132.835 100.742ZM129.169 93.7659C128.472 93.7564 127.66 93.7785 127.548 94.7309C127.415 95.8519 128.448 95.346 128.958 95.5898C129.593 95.8936 130.156 95.2942 130.681 95.4768C131.255 95.6751 131.603 95.5077 131.811 95.0852C132.113 94.4713 131.547 94.0286 131.295 93.5682C131.027 93.0825 130.581 93.4457 130.258 93.6168C129.927 93.793 129.682 94.2231 129.169 93.7659ZM143.104 75.9813C144 76.3615 144.755 76.8289 144.893 77.737C145.001 78.4425 144.178 78.0806 143.781 78.541C145.679 78.5852 145.303 80.2538 145.102 80.9466C144.571 82.7718 145.244 84.5169 145.03 86.3004C144.89 87.4726 144.62 88.6593 144.523 89.8447C144.422 91.0744 143.599 89.3799 142.96 89.4689C142.624 89.8346 142.649 90.2186 143.078 90.4365C143.519 90.6607 144.302 90.6152 144.24 91.2367C144.165 91.9914 143.946 93.149 143.454 93.3638C142.128 93.9423 142.435 95.2572 142.517 95.866C142.692 97.1797 142.093 97.0186 141.395 96.8216C140.386 96.5355 139.78 96.8576 139.578 97.8365C139.319 99.0857 137.915 98.8798 137.288 99.7596C136.673 100.622 135.71 101.231 135.794 102.521C134.06 102.313 134.862 100.786 134.174 99.8587C133.929 102.887 131.691 102.835 129.665 103.06C128.991 103.136 128.228 102.877 127.637 103.107C126.397 103.588 126.487 102.988 126.801 101.857C126.11 103.205 125.471 103.664 124.498 102.544C124.145 102.137 123.561 102.199 123.06 102.088C122.14 101.881 122.027 101.666 122.052 100.481C122.059 100.147 121.847 100.181 121.642 100.087C119.529 99.1192 118.612 97.3502 118.596 95.033C118.588 93.9296 119.039 92.1707 116.862 92.2857C116.562 92.3008 116.502 92.0728 116.405 91.8676C114.405 87.6128 115.057 83.5215 117.306 79.6071C118.344 77.8008 121.001 76.9021 123.021 77.612C123.681 77.8444 124.39 78.4734 124.671 79.1025C124.95 79.7271 124.248 79.9766 123.607 80.0587C123.109 80.1225 123.263 80.55 123.369 80.8778C123.547 81.4266 123.918 81.5687 124.442 81.3748C125.718 80.9018 126.005 81.1134 125.856 82.6253C125.746 83.7331 127.325 84.1739 128.208 84.7739C128.807 85.1806 129.126 84.3091 129.302 83.8082C129.43 83.447 129.628 83.1767 129.917 83.0295C132.712 81.5978 133.019 78.8568 133.453 76.227C133.656 74.9935 133.687 73.6641 133.926 72.4976C134.168 71.3147 134.542 70.0749 134.851 68.8554C135.347 66.9007 136.957 66.8382 138.499 66.9254C139.497 66.9816 140.484 67.3251 141.458 67.6043C141.693 67.6719 142.046 68.0129 142.025 68.1897C141.838 69.7276 143.639 70.8259 142.901 72.5526C142.715 72.9883 143.311 73.8574 143.7 74.4226C144.441 75.495 144.468 75.5291 143.104 75.9813Z" fill="#004680"/>
<path fill-rule="evenodd" clip-rule="evenodd" d="M68.2304 43.9887C66.8328 44.6209 65.8488 45.3365 65.2621 46.508C66.2208 45.7647 67.825 45.7647 68.2304 43.9887ZM62.7773 23.2145C64.0771 22.9726 64.7118 22.1995 65.4413 21.6059C66.8553 20.4539 68.0111 20.8215 68.4298 22.6751C68.6117 23.4791 68.6565 23.9269 69.7498 24.1498C70.8285 24.3702 71.0697 25.9112 71.5592 26.9135C73.068 30.0056 73.6478 33.3283 73.452 36.7438C73.1911 41.2998 70.9245 44.7172 67.197 47.258C65.4886 48.4226 63.7323 49.1085 61.5786 48.8552C60.5536 48.7346 59.9631 48.0803 59.173 47.6874C56.456 46.3384 53.65 45.17 51.1137 43.4528C48.3847 41.6061 45.2086 34.6899 46.5393 31.0231C47.3919 28.673 48.8299 27.2564 51.2185 26.7594C52.5922 26.4733 53.2206 27.0436 53.321 28.7242C54.0599 28.205 54.4174 27.6019 54.6214 26.7941C55.1001 24.9026 55.8036 23.0932 56.6929 21.3438C57.7476 19.2666 59.4995 18.2523 61.6563 17.7439C62.5032 17.5443 63.3476 17.6498 63.8624 18.3262C64.3626 18.983 64.3196 19.7769 63.8655 20.5714C63.4462 21.3046 63.2081 22.1414 62.7773 23.2145Z" fill="#004680"/>
<path fill-rule="evenodd" clip-rule="evenodd" d="M102.27 8.14374C103.337 5.7236 103.821 3.22514 105.705 1.46056C105.994 1.19025 106.245 0.837841 106.586 0.673004C107.398 0.280805 108.428 -0.355809 109.131 0.249858C109.739 0.775317 109.639 1.8856 109.33 2.78873C109.18 3.22262 108.625 3.81818 109.261 4.13838C109.799 4.40806 110.107 3.71144 110.451 3.35335C110.649 3.1462 110.797 2.88915 111.005 2.69526C111.392 2.33338 111.58 1.54961 112.31 1.83887C112.893 2.06875 113.407 2.48874 113.493 3.2043C113.572 3.86807 113.567 4.48574 114.599 4.03607C115.125 3.80744 115.493 4.48953 115.778 4.87478C118.925 9.13024 119.577 13.5328 115.486 17.8698C114.235 19.1954 112.95 20.4882 111.682 21.7981C110.986 22.5181 110.139 22.5086 109.294 22.2086C108.341 21.8701 109.369 21.0964 108.943 20.4769C107.973 22.0362 107.04 21.829 105.799 20.7042C105.029 20.0076 104.107 19.1367 102.66 19.7196C102.127 19.9344 101.112 19.3419 100.49 18.8841C97.3723 16.5896 95.4953 13.5524 95.4214 9.60012C95.3917 8.03259 95.9064 6.64252 97.4916 5.93643C97.7954 5.80128 98.4087 5.64592 98.432 5.69834C99.1589 7.33345 101.278 6.68041 102.27 8.14374Z" fill="#004680"/>
</svg>
