<svg width="171" height="155" viewBox="0 0 171 155" fill="none" xmlns="http://www.w3.org/2000/svg">
<path fill-rule="evenodd" clip-rule="evenodd" d="M170.219 80.6661C170.158 80.837 170.005 81.2661 169.811 81.806C169.982 81.8891 170.167 81.9777 170.425 82.102C170.556 82.579 171.28 83.0838 170.84 83.7291C170.443 84.3096 171.49 84.9231 170.69 85.3941C170.826 86.6118 169.971 87.4902 169.408 88.3409C168.897 89.1126 168.773 90.0762 168 90.7465C167.328 91.3297 166.95 92.2547 166.441 93.0318C165.998 93.0521 165.586 93.0697 165.016 93.0953C165.119 93.4251 165.195 93.6724 165.317 94.0623C165.164 94.2353 164.912 94.5211 164.638 94.8306C164.807 95.3509 164.966 95.8401 165.152 96.4145C164.887 96.7179 164.624 97.0193 164.336 97.3483C164.562 97.4294 164.774 97.5051 165.136 97.6342C164.723 97.9281 164.383 98.17 164.026 98.4241C164.095 98.5059 164.203 98.6322 164.372 98.8302C163.156 99.2843 162.073 98.191 160.732 98.7194C159.903 99.3188 159.288 100.542 158.057 100.994C157.582 101.169 157.988 102.042 157.175 101.939C156.885 101.903 157.099 102.838 156.42 102.656C156.167 103.504 155.413 103.844 154.818 104.378C154.324 104.82 153.874 105.396 153.476 105.973C153.145 106.452 152.791 106.917 152.44 107.384C152.123 107.806 151.75 108.194 151.489 108.648C151.266 109.036 151.285 109.697 150.985 109.872C150.581 110.107 150.304 110.361 150.218 110.908C149.821 110.67 149.578 110.526 149.334 110.38C148.575 110.752 147.814 111.106 147.059 110.175V108.24C145.605 107.419 144.086 106.702 143.406 104.846C143.459 104.234 143.163 103.366 143.75 102.65C142.897 100.942 143.638 99.4958 144.459 98.0714C145.447 96.3571 146.744 94.8934 148.264 93.5454C147.37 92.2 146.436 90.9465 145.674 89.5958C145.15 88.6666 144.571 87.6531 144.542 86.5901C144.512 85.4887 144.166 84.3393 144.821 83.2223C145.114 82.7223 144.833 81.9979 145.161 81.3391C145.357 80.9431 145.479 80.5032 145.783 80.1235C145.946 79.9187 145.939 79.5761 146.074 79.0329C146.376 78.7511 147.135 78.3713 147.293 77.8199C147.522 77.0185 148.545 77.3239 148.53 76.3867C148.794 76.5874 148.911 76.6766 149.094 76.8151C149.517 76.6894 149.995 76.5475 150.494 76.4002C150.676 76.7462 150.829 77.0361 151.014 77.3888C150.649 78.0531 150.249 78.7788 149.79 79.6126C150.698 79.5228 151.399 79.4525 151.998 79.393C152.243 79.6383 152.373 79.768 152.517 79.9126C152.272 80.3951 152.024 80.883 151.698 81.5269C152.274 81.5864 152.722 81.6324 153.276 81.6891C153.139 82.3405 153.003 82.9939 152.869 83.6366C152.635 83.846 152.381 84.0731 152.121 84.3069C152.286 84.4724 152.354 84.5609 152.369 84.5522C152.608 84.419 152.842 84.2738 153.127 84.1008C153.223 84.3589 153.283 84.5177 153.361 84.7231C152.841 84.9873 152.346 85.2387 151.782 85.5245C152.044 85.6124 152.251 85.682 152.635 85.8104C152.197 86.2503 151.809 86.6408 151.302 87.151C151.948 87.6625 152.521 88.1166 153.134 88.6031C154.039 88.7754 154.765 88.393 155.476 87.7767C157.12 86.353 158.928 85.1103 160.548 83.6791C162.206 82.2135 163.971 80.7776 165.152 78.8139C165.428 78.3544 165.913 78.022 166.33 77.6044H168.263C168.369 77.7388 168.551 77.9706 168.74 78.2085C168.528 78.8132 168.311 79.4363 168.028 80.2458C168.614 80.0843 169.09 79.9532 169.709 79.7822C169.807 79.9512 169.958 80.214 170.219 80.6661Z" fill="#D5D5D5"/>
<path fill-rule="evenodd" clip-rule="evenodd" d="M53.6242 119.477C53.028 119.663 52.5382 119.815 51.905 120.012C52.0592 119.68 52.161 119.461 52.2896 119.184C51.8679 118.546 51.391 117.976 50.5185 118.102C50.4512 117.844 50.408 117.678 50.3474 117.447H48.8296C48.678 117.295 48.5467 117.223 48.5123 117.119C48.2799 116.416 48.2307 115.581 47.809 115.029C47.266 114.32 47.5361 113.625 47.5112 112.938C47.4903 112.381 47.7147 111.81 47.8514 111.251C48.3419 109.25 49.1004 107.348 50.0665 105.539C50.6614 104.427 51.3276 103.344 52.0579 102.316C52.7713 101.312 53.6074 100.395 54.4138 99.4092C54.1948 99.2686 53.955 99.1051 53.7057 98.9571C51.296 97.5273 49.1853 95.7271 47.2283 93.731C46.3046 92.7891 46.2992 91.5248 46.0298 90.3612C45.9213 89.8956 46.0123 89.3828 46.0123 88.8915C46.5061 87.9469 47.5011 87.8671 48.4665 87.482C48.7919 88.0563 49.126 88.6469 49.5033 89.3111C49.5693 89.2625 49.6838 89.178 49.8893 89.026C50.0153 89.1517 50.2369 89.2726 50.2989 89.4503C50.6829 90.5457 51.5749 91.1032 52.5227 91.5775C54.4515 92.5445 56.3978 93.4736 58.4687 94.4825C58.9531 93.9689 59.4374 93.181 60.1408 92.7871C60.7889 92.4235 60.8225 91.3836 61.8331 91.4836C61.6889 91.3059 61.5885 91.1822 61.439 90.9984C61.7489 90.7808 62.0628 90.5606 62.5 90.2538C62.6381 89.9483 62.849 89.4828 63.0551 89.0267C63.3677 89.0084 63.6581 88.9915 64.0764 88.9672C63.8986 88.7375 63.8056 88.6178 63.6614 88.4313C64.4416 88.3172 64.4934 87.507 64.9846 87.0718C65.5033 86.6116 65.8705 85.9798 66.3622 85.3473C66.4714 85.4278 66.5852 85.5115 66.8022 85.6717C66.8978 85.446 66.9874 85.2331 67.0999 84.9662C67.2326 85.0737 67.3553 85.1723 67.5762 85.3521C67.8167 84.0581 68.5484 83.0202 69.3258 82.087C70.1268 81.1247 70.847 80.0199 72.158 79.376C72.3223 79.5118 72.5426 79.6936 72.7919 79.899C72.2738 80.897 71.7719 81.8863 70.7102 82.4073V83.881C70.9615 83.8195 71.2168 83.831 71.27 83.7324C71.4829 83.3344 71.6332 82.9026 71.7174 82.6992C72.5905 81.9775 73.3039 81.3883 74.2039 80.645C74.2551 81.3335 74.2875 81.7829 74.3198 82.214C74.0456 82.3269 73.8368 82.4127 73.6172 82.5032C73.6737 82.5823 73.7445 82.735 73.7822 82.7269C74.2282 82.635 74.6695 82.5188 75.2118 82.3843C75.3654 82.6559 75.5527 82.9864 75.7413 83.3188C75.6402 83.4317 75.5196 83.5655 75.3896 83.7101C75.4664 84.2439 76.1064 84.7149 75.6113 85.3264C75.4671 85.196 75.3391 85.0798 75.2084 84.9602C75.1478 85.0744 75.0299 85.1953 75.0541 85.2717C75.1215 85.4879 75.2475 85.6859 75.3889 85.9656C75.2879 86.9015 74.5421 87.5232 73.8503 88.155C73.1954 88.753 72.4753 89.278 71.6332 89.9558C71.9794 90.1551 72.2806 90.3295 72.6194 90.5254C72.4079 90.9329 72.2799 91.1788 72.1452 91.437C72.2233 91.5241 72.3405 91.6525 72.5224 91.8539C72.1229 91.9181 71.7861 91.9728 71.3031 92.0519C71.4344 92.3877 71.5469 92.6735 71.6769 93.0053H70.4535C70.2265 93.4722 70.0284 93.8797 69.8398 94.2676C70.015 94.4568 70.1376 94.5892 70.3141 94.7798C69.9388 94.8494 69.6027 94.9122 69.1136 95.0041C69.2321 95.3176 69.3406 95.6001 69.4679 95.9359C69.154 95.9826 68.8158 96.0326 68.3752 96.0974C68.5046 96.4475 68.6097 96.7313 68.7835 97.2016C68.3052 97.0151 67.9569 96.8792 67.5365 96.7157C67.3384 97.0941 67.1363 97.4806 66.9396 97.8563C67.0097 97.9901 67.0373 98.1368 67.1201 98.182C67.2663 98.2618 67.4637 98.2469 67.6086 98.328C68.1711 98.6429 68.3025 99.3727 68.8556 99.6855C69.4518 100.023 69.7111 100.603 70.0911 101.119C70.4333 101.584 70.6873 101.976 70.6489 102.565C70.6354 102.766 70.8146 102.98 70.9258 103.232C70.8288 103.397 70.69 103.633 70.5007 103.956C70.0042 104.014 69.6431 104.68 68.737 104.328C67.1545 103.713 65.5073 103.161 63.7888 102.954C63.6931 102.943 63.6143 102.79 63.458 102.633C62.9554 103.201 62.4562 103.766 61.8297 104.474C61.8216 104.541 61.7879 104.831 61.7509 105.144C61.3992 105.199 61.0624 105.253 60.5389 105.335C60.8845 105.822 61.1425 106.185 61.5272 106.727C61.0927 106.6 60.803 106.515 60.4352 106.407C60.359 106.497 60.2048 106.681 60.037 106.879C60.2499 107.469 60.0788 107.83 59.3896 108.223C59.1835 108.966 58.9854 109.68 58.8203 110.276C58.5091 110.391 58.3353 110.455 58.111 110.538L58.5131 110.942C57.9641 111.363 57.3342 111.705 56.9084 112.217C56.5238 112.678 56.3634 113.327 56.0643 113.981C56.0933 114.026 56.2139 114.207 56.4052 114.494C56.0003 114.912 55.6028 115.323 55.2202 115.718C55.3691 115.904 55.4789 116.041 55.6688 116.279C55.3987 116.589 55.1333 116.893 54.8375 117.231V118.306C54.4037 118.725 53.9638 119.15 53.6242 119.477Z" fill="#D5D5D5"/>
<path fill-rule="evenodd" clip-rule="evenodd" d="M98.8056 126.821C99.6545 127.851 99.6552 127.853 100.685 127.282C100.714 127.612 100.704 127.899 100.775 128.164C100.825 128.352 100.984 128.51 101.087 128.67C100.956 128.802 100.869 128.888 100.759 128.999C101.015 129.119 101.261 129.235 101.662 129.423C101.244 130.02 100.85 130.582 100.457 131.145C100.964 132.06 99.8909 132.222 99.7367 132.712C99.4989 133.469 98.5813 133.632 98.555 134.44C98.5247 135.384 97.56 135.5 97.141 136.049C96.7772 136.527 96.1304 136.839 96.0469 137.449C96.1917 137.697 96.3063 137.894 96.4942 138.218C95.9506 138.526 95.477 138.796 95.002 139.065L93.8561 139.608C93.5078 140.021 93.1595 140.433 92.694 140.983V141.344C91.5211 142.209 90.4257 143.017 89.1538 143.955C89.5175 144.141 89.7378 144.254 90.103 144.441C89.5977 145.15 89.0864 145.868 88.5367 146.639C89.948 147.121 91.2759 147.576 92.6455 148.045C92.5101 148.318 92.3955 148.548 92.2406 148.86C92.8509 149.079 93.4216 149.283 94.073 149.516V150.317C94.4826 150.695 94.8417 151.025 95.2136 151.369C95.2365 151.802 95.2573 152.215 95.2782 152.611L95.9445 153.278L94.2542 154.689C93.8561 155.134 93.4411 155.051 92.9951 154.755C92.8597 154.665 92.6697 154.614 92.5053 154.617C90.6082 154.659 88.8937 153.934 87.1677 153.301C85.8945 152.835 84.669 152.238 83.3486 151.668C82.9882 152.028 82.427 152.301 82.3549 153.044C81.5923 153.226 80.8102 153.412 80.0786 153.586C79.7013 153.203 79.4002 152.897 79.0983 152.59C79.2129 152.463 79.3314 152.332 79.5066 152.138C79.3247 151.759 79.1287 151.35 79.0114 151.107C78.4435 151.194 77.941 151.273 77.4505 151.348C77.179 150.811 76.9351 150.325 76.6852 149.828C76.5633 149.95 76.477 150.037 76.4454 150.069C76.0391 149.654 75.6295 149.237 75.0636 148.662C75.2395 147.383 74.4236 145.915 74.6426 144.328C74.6891 143.995 74.4351 143.514 74.1676 143.263C73.0837 142.242 73.0372 140.768 72.5279 139.513C72.3332 139.034 72.1257 138.426 72.1089 137.847C72.0806 136.927 71.9735 135.982 72.1304 135.089C72.3783 133.676 72.6451 132.169 74.2855 131.613C74.8279 131.429 75.4247 131.409 76.1395 131.29V134.164C76.7613 133.763 77.1777 133.494 77.7988 133.092C77.885 133.346 77.9888 133.649 78.0912 133.952C78.1835 133.882 78.2758 133.811 78.3681 133.741V135.436C78.684 135.276 78.9124 135.159 79.128 135.049C79.9074 135.733 79.8872 136.609 79.7794 137.51C80.0402 137.602 80.2524 137.677 80.5926 137.798C80.4477 138.193 80.3029 138.585 80.1277 139.058C80.3399 139.02 80.4464 139.031 80.5057 138.983C80.6485 138.87 80.7469 138.667 80.9031 138.608C82.4722 138.01 83.2617 136.337 84.8368 135.755C85.1534 134.611 86.3559 134.367 87.0586 133.596C87.7895 132.794 88.821 132.273 89.7028 131.604C90.5564 130.957 91.0374 129.866 92.151 129.524C92.8826 128.188 93.9356 127.176 95.2459 126.42C95.2001 125.516 96.441 125.403 96.412 124.449H98.0686C98.1872 124.567 98.3603 124.741 98.5335 124.915C97.7405 125.311 97.4509 126.079 96.9436 126.891C98.041 127.119 98.6729 125.779 99.707 126.397C99.4079 126.538 99.1634 126.653 98.8056 126.821Z" fill="#D5D5D5"/>
<path fill-rule="evenodd" clip-rule="evenodd" d="M94.5478 107.343C94.4623 106.482 95.6709 106.387 95.0982 105.585C94.952 105.716 94.822 105.831 94.692 105.947C94.6489 105.903 94.5741 105.864 94.5667 105.816C94.4306 104.913 94.4852 104.057 95.1238 103.321C95.8265 102.513 96.5231 101.698 97.1968 100.865C97.4096 100.602 97.541 100.273 97.7505 99.9031C97.4177 99.0334 96.9616 98.132 96.5655 97.236C96.1404 96.2738 96.1499 95.2305 95.6877 94.2784C95.4418 93.7729 96.0832 92.8857 95.9329 92.2667C95.7638 91.5741 95.3563 90.9849 95.9518 90.3321C95.9639 88.5063 97.2015 87.3684 98.2841 86.1008H101.345C101.524 86.271 101.701 86.44 101.988 86.7123C101.522 87.3076 101.056 87.9029 100.541 88.5617C100.598 88.6847 100.736 88.9787 100.921 89.3726C101.093 89.3726 101.423 89.4719 101.541 89.355C102.053 88.8516 102.644 89.055 103.182 88.9956C103.381 89.4273 103.546 89.7882 103.731 90.1889C103.455 90.5349 103.17 90.8923 102.737 91.4336C103.391 91.5174 103.83 91.5734 104.407 91.6471V93.4134C105.647 93.454 105.784 91.9464 106.828 91.9525C107.303 91.2281 107.995 90.7241 108.618 90.1463C109.337 89.4807 110.02 88.7753 110.698 88.0664C111.322 87.413 111.955 86.7623 112.516 86.0568C113.092 85.3298 113.588 84.5378 113.922 84.058C114.681 83.785 115.109 83.631 115.64 83.4404C115.813 83.6884 116.098 83.9405 116.171 84.2439C116.227 84.477 116.042 84.7871 115.917 85.0392C115.775 85.3257 115.58 85.5852 115.582 86.0893C116.118 85.8629 116.653 85.6359 117.243 85.3865C117.558 86.0014 117.894 86.6596 118.405 87.6576C118.405 87.6367 118.375 87.9995 118.415 88.3543C118.446 88.63 118.563 88.8962 118.666 89.2496C118.593 89.3767 118.46 89.6118 118.336 89.8294C118.522 90.0301 118.645 90.1632 118.755 90.2815C117.69 91.991 116.732 93.7608 115.565 95.4156C114.585 96.8049 114.722 96.9022 114.004 97.2955C114.118 97.4232 114.234 97.5516 114.327 97.655C112.873 99.2888 111.432 100.91 109.968 102.555V103.167C111.118 103.901 112.23 104.612 113.393 105.354C113.224 105.685 113.121 105.888 112.962 106.202C113.402 106.581 113.698 107.31 114.55 107.041C114.736 107.413 114.888 107.716 115.038 108.015C114.931 108.165 114.797 108.351 114.615 108.606C115.076 109.069 115.489 109.484 115.937 109.934C115.766 110.373 115.621 110.748 115.46 111.164C115.578 111.367 115.72 111.611 115.85 111.836C115.786 111.976 115.766 112.121 115.685 112.174C115.505 112.292 115.239 112.315 115.107 112.465C114.317 113.36 114.176 113.41 113.182 113.07C111.895 112.628 110.511 112.369 109.336 111.725C107.761 110.863 106.345 109.707 104.718 108.578C104.035 109.085 103.269 109.78 102.53 110.571C101.816 111.337 100.875 111.944 99.5668 112.334C99.7972 111.953 99.8915 111.796 100.096 111.456C99.2758 111.609 98.5879 111.738 97.9008 111.866L97.7829 111.629C98.1965 111.305 98.6095 110.982 99.0231 110.659L98.3838 110.018H97.1294C96.9623 109.597 96.7764 109.125 96.5568 108.571H95.0342C94.8247 108.042 94.6368 107.568 94.5478 107.343Z" fill="#D5D5D5"/>
<path fill-rule="evenodd" clip-rule="evenodd" d="M102.514 71.1823C101.884 71.3337 101.328 71.4675 100.544 71.656C99.7388 71.0594 98.7761 70.3161 97.7824 69.6187C96.5974 68.7869 95.568 67.7274 94.2153 67.1415C93.902 67.0057 93.5732 66.9077 93.138 66.7509C92.6106 65.9583 92.5492 64.4866 91.0018 64.6488C90.3018 64.0068 90.2163 62.8919 89.1929 62.7838C88.8581 62.2114 88.6466 61.5567 88.2067 61.1479C86.1984 59.2795 84.7453 57.0354 83.4956 54.3278C83.3871 53.4919 83.3865 52.3776 83.2066 51.26C82.9236 49.4997 83.8587 47.9881 85.3785 47.0124C85.7983 46.7434 86.0145 46.1522 86.7118 46.215C87.1968 46.259 87.7088 46.0002 88.3529 45.8414C88.5435 46.0116 88.7961 46.2367 89.1148 46.5205C88.5967 47.3928 87.6172 47.9435 87.5431 49.1152C88.6958 49.5011 89.2125 48.2165 90.3726 48.0685C90.514 48.1956 90.7653 48.4199 91.0011 48.6321C90.5902 49.2504 90.3133 49.6666 89.8033 50.4336C90.5962 50.1822 91.1601 50.1782 91.3683 49.9031C91.8944 49.2071 92.7453 48.9281 93.2391 48.1537C93.6992 47.4327 94.4538 46.8955 95.2251 46.3927C96.3158 45.6826 97.1997 44.6615 98.2223 43.8358C99.7253 42.6222 101.134 41.2924 102.808 40.2835C103.47 39.8855 103.96 39.1922 104.51 38.6145C105.01 38.0888 105.804 37.859 105.961 37.0752H108.432V38.674C108.363 38.7429 108.126 38.9807 107.841 39.2679C108.168 39.2091 108.495 39.1625 108.815 39.0895C109.141 39.0152 109.462 38.9152 109.957 38.7794C109.881 39.9693 109.938 41.0228 110.795 41.7904C110.615 42.0343 110.512 42.1735 110.304 42.4553C110.566 42.5999 110.869 42.7661 111.433 43.0763C110.852 43.2358 110.655 43.2898 110.385 43.3642C110.487 43.5993 110.625 43.8189 110.675 44.0574C110.725 44.2926 110.686 44.546 110.686 44.7872C110.005 45.7251 109.323 46.663 108.575 47.6928C108.437 47.7084 108.148 47.7401 107.722 47.7868C107.851 47.9652 107.931 48.0767 108.035 48.2213C107.925 48.4848 107.803 48.7774 107.667 49.1031C106.05 49.0247 106.038 50.6958 105.039 51.3465C105.25 51.6256 105.355 51.7641 105.403 51.8276C104.738 52.4952 104.067 53.1682 103.39 53.8473C103.444 53.8973 103.357 53.8183 103.395 53.8521C103.093 54.1541 102.782 54.4663 102.471 54.7792C102.37 54.7001 102.269 54.6217 102.168 54.5427V55.513C101.955 55.3366 101.831 55.2339 101.552 55.0048C101.614 55.4184 101.655 55.6934 101.712 56.0799C101.253 56.6759 100.702 57.3929 100.104 58.1699C99.8351 57.9726 99.6519 57.8368 99.4889 57.7165C98.8273 58.4923 98.1489 59.2876 97.4644 60.0903C97.7279 60.2221 97.9711 60.3431 98.3254 60.5194C97.9953 60.9391 97.7117 61.2999 97.4456 61.6384C97.4887 61.7878 97.4887 61.9256 97.5567 62.0026C98.6757 63.2608 100.003 64.3859 100.875 65.7955C101.858 67.3828 103.086 69.0214 102.514 71.1823Z" fill="#D5D5D5"/>
<path fill-rule="evenodd" clip-rule="evenodd" d="M128.006 44.5403C128.12 44.4268 128.207 44.3396 128.296 44.2498C128.23 44.1646 128.174 44.0666 128.095 43.9943C127.619 43.5585 127.018 43.1848 126.632 42.7578C126.254 42.3402 125.831 42.0219 125.449 41.6394C124.94 41.1306 124.373 40.4022 124.346 39.7474C124.298 38.5757 124.227 37.4006 124.505 36.1728C124.984 34.0531 126.091 32.4482 127.556 30.984C129.417 29.125 131.272 27.26 133.224 25.3018C132.483 24.6619 132.445 23.4537 131.272 23.2185C130.779 22.257 130.288 21.2954 129.794 20.3339C129.34 19.4466 129.421 18.4891 129.426 17.5411C129.43 16.8661 129.427 16.191 129.427 15.516C130.046 14.7233 130.666 13.9307 131.275 13.1523H134.335C133.845 13.9922 133.425 14.7105 133.013 15.416C134.145 16.2403 134.561 14.4544 135.555 14.999C136.176 15.8511 135.021 16.2525 134.655 17.0769C135.361 16.9073 135.771 16.8079 136.273 16.687C136.571 17.5627 136.422 18.329 135.953 19.152C136.203 19.25 136.401 19.327 136.698 19.4426C136.911 19.671 136.47 19.7041 136.395 20.0406C136.69 20.4933 137.049 21.0447 137.493 21.7265C140.525 18.5358 144.39 16.3971 146.754 12.7529H148.598C148.456 13.3611 148.332 13.8922 148.162 14.6186C148.674 14.4375 149.068 14.2983 149.608 14.1071V15.5369C149.903 15.6146 150.069 15.6579 150.235 15.7018C150.281 15.8052 150.354 15.9059 150.367 16.0133C150.389 16.1944 150.342 16.3863 150.378 16.564C150.751 18.4777 149.802 19.996 148.804 21.4299C147.727 22.9814 146.475 24.4119 145.21 26.0072C146.112 27.0945 147.556 27.6229 148.827 28.6378C148.85 28.8054 148.889 29.0879 148.934 29.4129C149.271 29.8352 149.815 30.244 149.969 30.7684C150.307 31.9178 151.144 32.9881 150.576 34.472C150.437 34.5356 150.131 34.6862 149.818 34.82C149.505 34.9532 149.186 35.068 148.831 35.2065C148.345 34.7106 147.246 34.868 147.394 33.9024C146.272 33.5774 145.285 33.2909 144.329 33.0132C144.11 32.6314 143.911 32.2854 143.686 31.8942H141.657C141.606 31.6745 141.566 31.5083 141.518 31.3029C140.767 30.7238 140.137 31.4056 139.698 31.5232C139.099 32.2205 138.64 32.7543 138.133 33.3429C137.987 33.2321 137.871 33.1429 137.668 32.9895C137.452 33.297 137.218 33.6281 136.933 34.0315C136.895 33.9821 136.987 34.1017 137.124 34.2788C136.273 34.493 136.198 35.3512 135.824 36.0573C135.53 35.8755 135.336 35.7559 135.04 35.5728C134.989 35.8904 134.94 36.2012 134.881 36.5688C134.754 36.6033 134.589 36.6479 134.294 36.7283C134.215 37.475 134.109 38.3845 133.006 38.1365C132.635 38.6183 132.014 39.0663 132.057 39.4393C132.183 40.5603 131.248 41.0962 130.992 41.9726C130.872 43.0801 130.889 43.0794 131.231 43.8193C130.432 44.4586 129.529 44.889 128.492 45.1546C128.357 44.9829 128.205 44.7924 128.006 44.5403Z" fill="#D5D5D5"/>
<path fill-rule="evenodd" clip-rule="evenodd" d="M20.5598 23.7192C20.1024 23.776 19.8269 23.8104 19.4793 23.8537C19.6908 24.0888 19.8114 24.2219 20.0041 24.4362C19.548 25.2869 18.6836 25.7971 18.0975 26.541L18.3845 26.8289C17.9177 27.1965 17.4501 27.5641 17.0526 27.8769C16.833 28.4574 17.3019 29.1122 16.5292 29.4716C17.2137 29.9318 17.8395 30.3427 18.4546 30.7684C20.3833 32.1049 22.4462 33.2516 24.0361 35.0518C24.9469 36.0822 25.8045 37.0783 25.8207 38.5581C25.8233 38.8074 26.076 39.0534 26.2774 39.419C25.723 39.771 25.2036 40.1001 24.5528 40.513C20.8859 38.3581 17.0951 36.4377 13.6182 33.6233C13.3689 33.7659 12.8246 33.8861 12.7242 34.1666C12.3261 35.2775 11.5459 36.0572 10.7517 36.8526C10.6547 36.9499 10.691 37.1803 10.6648 37.3506C10.3246 37.3884 10.0355 37.4195 9.59428 37.4682C9.67917 37.7594 9.75125 38.0067 9.87723 38.4398C9.16986 39.0338 8.64169 39.9177 8.36346 41.015C8.20178 41.6522 7.59276 42.1746 7.04708 42.9442V46.9486C6.69946 46.9709 6.40978 46.9891 6.08169 47.01C6.01095 47.2094 5.9355 47.4229 5.84523 47.679H4.5787C4.38064 47.1033 4.17786 46.5127 3.94342 45.8323C3.59108 45.9877 3.23941 46.1424 2.82038 46.3269C2.73415 46.0593 2.66611 45.8498 2.59807 45.6404C2.49432 45.5971 2.37979 45.5012 2.28615 45.5187C1.50872 45.6667 0.976508 45.0072 0.880845 44.5876C0.490782 42.8794 -0.611366 41.19 0.446992 39.3561C0.466529 37.5398 1.59091 36.1539 2.22821 34.574C2.43638 34.0585 3.33104 34.149 3.08851 33.2584C2.9888 32.8922 3.65171 32.3117 3.97777 31.8353C4.27352 31.4035 4.55175 30.9555 4.89196 30.5616C5.29146 30.0987 5.77786 29.7109 6.17399 29.246C6.50342 28.8581 6.7574 28.406 7.08009 27.9303C4.8475 26.2484 3.48194 23.8591 1.91697 21.6312C1.41508 19.4757 0.548045 17.3823 0.886234 14.8584C1.40295 14.2631 2.06384 13.5009 2.77457 12.6826C3.56144 12.8448 4.44598 12.3556 5.16481 13.1779C4.6939 13.8145 4.22636 14.4463 3.75411 15.0848C3.88413 15.2227 4.00472 15.3524 4.12396 15.4794C5.12102 15.6862 5.48615 14.2307 6.52767 14.5679C6.68262 14.8693 6.83689 15.1713 6.99858 15.4848C6.6779 15.6909 6.31074 15.9274 5.9254 16.1748C6.16051 16.4113 6.33365 16.5849 6.50679 16.7586C7.02687 16.2187 7.53213 16.2119 8.14317 16.9505C8.08792 17.362 8.4059 17.9566 7.79218 18.4357C8.04683 18.5587 8.29609 18.679 8.65247 18.8499C8.35942 19.2452 8.09938 19.5953 7.83327 19.9541C8.08119 20.0426 8.29407 20.1176 8.73938 20.2764C8.32978 20.3872 8.13575 20.4392 7.79622 20.5311C7.83192 20.8305 7.76051 21.24 7.93028 21.4691C8.63361 22.4178 9.40969 23.3117 10.2417 24.326C10.6998 23.9138 11.0515 23.607 11.3917 23.2888C13.4019 21.4089 15.0841 19.1547 17.5774 17.8235C17.564 17.1309 18.2868 17.1796 18.5981 16.8086C18.9504 16.389 19.3418 16.0024 19.5945 15.7315H20.8293C20.2695 16.5579 19.3156 17.0248 19.6268 18.2154C20.4244 17.7384 21.2052 17.2715 22.1565 16.7032C22.0716 17.2485 22.0056 17.6688 21.9315 18.1465C22.2643 18.3148 22.7588 18.5668 23.2896 18.8358C23.1529 19.1202 23.0383 19.3574 22.9049 19.6351C23.0969 19.6757 23.264 19.7101 23.4385 19.7466C23.4567 19.8183 23.5268 19.9406 23.4931 19.9858C23.0457 20.5913 22.4468 21.1265 22.1619 21.7975C21.8048 22.6394 21.0173 23.0185 20.5598 23.7192Z" fill="#D5D5D5"/>
<path fill-rule="evenodd" clip-rule="evenodd" d="M54.0981 42.5296C55.562 40.7282 56.7982 39.2307 58.0088 37.7124C59.1554 36.2745 60.1357 34.7216 61.0269 33.1303C60.9131 32.9891 60.8026 32.8526 60.6133 32.6188C60.9245 32.2647 61.2324 31.9133 61.5592 31.541H62.7698C63.2225 31.9951 63.5869 32.6431 64.105 32.8087C64.7376 33.01 64.8272 33.5175 65.0825 33.8966C65.9677 35.2095 66.5835 36.542 65.9031 38.253C65.4847 39.3051 65.061 40.3579 64.6258 41.4052C64.4951 41.7208 64.3994 42.0512 64.233 42.5317L63.3053 43.4628V44.6223C62.5791 45.942 61.9748 47.0421 61.3133 48.2449C62.2274 48.8679 63.0696 49.4686 63.9373 50.0295C65.6565 51.1411 67.0786 52.5216 67.9282 54.4183C68.1107 54.8265 68.1943 55.2799 68.3842 55.9171C68.3189 56.0623 68.1592 56.4198 67.9827 56.8117C67.6041 56.9888 67.1952 57.18 66.8759 57.3287C66.0122 57.0293 65.2482 56.8056 64.518 56.5009C63.787 56.1968 63.0898 55.8117 62.3777 55.4623C62.2564 54.3953 61.0438 54.8265 60.5446 54.1007C60.135 53.5047 59.2242 53.2567 58.4252 52.7898C56.0309 55.24 53.9223 57.9165 51.9874 60.7357C51.8386 60.9519 51.8864 61.3039 51.8433 61.5925C50.9998 62.2439 50.1658 62.1445 49.3291 61.5526V60.9667C48.2418 60.3133 47.2225 59.7011 46.1075 59.0308C45.574 58.4037 45.8455 57.4185 45.4978 56.6563C45.1105 55.8076 45.4379 54.9859 45.291 54.3616C46.5063 51.6445 47.9447 49.2646 50.0041 47.211V45.9569C48.8137 45.1251 48.074 43.8284 47.3249 42.5567C47.0736 42.1303 47.0345 41.5735 46.9193 41.0721C46.6855 40.0518 46.3359 39.0645 46.3669 37.9807C46.4268 35.9075 47.6004 34.4284 49.5736 33.6844C50.8179 33.2155 52.0265 33.4513 53.3645 33.3195C52.6443 34.8149 50.919 34.6872 49.9105 35.9407C51.6499 35.8636 52.7096 34.2203 54.4834 34.5338C54.4147 34.9527 54.346 35.3724 54.2733 35.8143C54.5986 35.9292 55.0763 36.0988 55.5357 36.2623V38.6023C55.0628 39.4301 54.5434 40.2558 54.1197 41.1289C53.9829 41.4093 54.0981 41.8134 54.0981 42.5296Z" fill="#D5D5D5"/>
<path fill-rule="evenodd" clip-rule="evenodd" d="M85.1439 19.5906C84.4561 20.4555 83.8282 21.2461 83.1337 22.1191V24.4835C82.4876 24.7436 81.859 24.9977 81.149 25.2836C80.3096 24.4659 79.9694 23.3814 79.7006 22.3563C79.3408 22.4908 79.0228 22.609 78.5506 22.7847C78.1801 22.2502 77.7294 21.7779 77.4862 21.2157C76.7586 19.5311 76.8165 17.7323 76.896 16.0397C77.2012 15.3423 77.4734 14.7193 77.8129 13.9415C77.3049 13.8652 76.8549 13.9361 76.6683 13.7469C75.4813 12.5435 74.3097 11.319 73.2217 10.0264C72.6356 9.32904 72.0172 8.54047 71.7834 7.69109C71.4425 6.44775 71.4344 5.11252 71.2734 3.72391C71.8326 2.93534 72.2873 2.01163 72.9974 1.3751C73.6502 0.789921 74.5785 0.514226 75.585 0C75.8195 0.254748 76.0478 0.501387 76.2789 0.75208C76.1442 0.881819 74.3502 2.61505 74.3502 2.61505C74.4795 2.74547 74.6095 2.87588 74.8009 3.06711C75.6221 2.46639 76.4399 1.68052 77.7752 2.1988C77.4437 2.65424 77.1857 3.00832 76.7323 3.63066C77.3454 3.39078 77.6876 3.25766 78.1619 3.07252C78.3855 3.41038 78.6254 3.77324 78.9164 4.21381C78.4098 4.72263 78.0116 5.12198 77.5313 5.60445C77.8412 5.66797 78.0083 5.70311 78.2858 5.76054C77.8695 6.46465 78.1046 7.43836 77.0314 7.79785C78.0965 9.11213 79.2822 9.83651 80.4854 10.6379C84.5356 7.26943 88.4975 3.97393 92.5127 0.634504H94.2852C93.9746 1.25887 93.728 1.75688 93.4781 2.26097C94.0103 2.66843 94.4313 2.21097 94.9029 2.00555C96.2651 3.28064 96.5858 4.87264 96.3055 6.64844C95.7396 7.37687 95.1583 8.1249 94.5647 8.88847C94.6031 8.92361 94.6914 9.00604 94.9339 9.23106C94.6072 9.27295 94.2926 9.3135 93.9773 9.35404C94.1006 9.48648 94.2239 9.6196 94.3471 9.75272H93.6633C92.4042 12.1292 90.2761 13.7462 88.7178 15.9113C90.8534 17.1046 93.243 17.9925 95.5025 19.3433C95.5712 19.6838 95.6487 20.0703 95.7396 20.5271C96.0172 20.2325 96.2254 20.0116 96.4261 19.7987C97.3356 19.9217 97.3167 20.9704 98.08 21.3542C98.7483 21.6907 99.1384 22.584 99.6585 23.2395V25.4275C99.482 25.6045 99.3088 25.7782 99.0663 26.0214C97.1746 25.8187 95.6103 24.7376 93.8877 23.8632C93.8526 23.8949 93.7247 24.0112 93.6687 24.0618C92.4635 23.7632 91.7447 22.4658 90.3542 22.6597C89.7061 21.8238 88.6404 21.759 87.809 21.2664C86.9689 20.769 86.1551 20.2291 85.1439 19.5906Z" fill="#D5D5D5"/>
<path fill-rule="evenodd" clip-rule="evenodd" d="M138.645 49.0329C139.024 49.2478 139.322 49.4167 139.76 49.6647C139.661 50.2648 139.56 50.8695 139.436 51.6142C139.744 52.1507 140.002 52.9677 140.937 53.2974C141.355 52.7122 141.612 52.0426 142.417 51.7155C142.982 51.4851 143.314 50.6776 143.747 50.1256C144.224 49.5181 144.885 49.1032 145.26 48.3633C145.576 47.7409 146.253 47.3152 146.681 46.7355C147.122 46.1361 147.457 45.457 147.837 44.8137H149.908C150.017 45.3962 150.196 45.9719 149.513 46.5733C150.103 46.6003 150.56 46.6213 150.977 46.6402C151.164 47.4997 151.332 48.2781 151.498 49.039C151.2 49.1559 150.989 49.2383 150.741 49.3356C150.767 49.5046 150.763 49.6809 150.823 49.8309C151.335 51.0993 151.251 51.5344 150.267 52.5136C149.856 52.9217 149.684 53.5569 149.851 53.9535C150.114 54.5766 149.325 54.3367 149.698 54.9117C149.303 54.5853 149.179 54.4826 148.965 54.3056V55.332C148.577 55.407 148.241 55.4712 147.843 55.5476V56.5551C147.372 57.0463 147.041 57.3936 146.765 57.6829C147.405 58.312 147.996 58.8917 148.487 59.3749V60.7628C148.883 61.1601 149.298 61.5757 149.722 62.0028C149.59 62.2379 149.506 62.3859 149.358 62.646C149.551 63.038 149.787 63.5204 150.093 64.1428C149.738 64.8847 149.347 65.7044 148.975 66.4828H147.444C145.66 65.4591 143.93 64.4651 142.206 63.4745C141.9 63.9482 141.657 64.3252 141.451 64.6448C141.133 64.4894 140.887 64.3691 140.466 64.163V65.878C139.907 65.6692 139.516 65.5233 138.784 65.2503C139.086 65.6638 139.169 65.7767 139.328 65.9943C138.991 66.3118 138.635 66.6477 138.071 67.1788C137.958 66.4929 137.887 66.0632 137.809 65.5902C138.067 65.501 138.276 65.4287 138.542 65.3361C138.568 65.1976 138.6 65.03 138.638 64.8253C138.406 64.7442 138.192 64.6712 137.978 64.5969C138.057 64.2712 138.137 63.9428 138.273 63.386C137.933 63.6988 137.801 63.8198 137.723 63.8914C136.941 63.7441 136.201 63.6056 135.422 63.4596C135.302 63.2285 135.146 62.9271 134.962 62.5744C135.101 62.0352 135.259 61.423 135.418 60.7986C135.778 60.8581 136.234 60.9344 136.69 61.0101C136.709 60.9425 136.727 60.875 136.746 60.8067C136.27 60.5668 135.794 60.327 135.375 60.1155C135.621 59.606 135.865 59.0985 136.12 58.5701C134.911 56.5111 133.594 54.5678 132.85 52.3311C132.403 50.7905 132.932 49.2681 133.153 47.7517C133.325 46.5726 134.297 45.7388 135.361 45.1421C135.512 45.057 135.656 44.959 135.898 44.8076H137.725C138.013 45.0968 138.273 45.3577 138.455 45.5408C138.096 45.9016 137.73 46.2679 137.513 46.4848V47.6186C137.918 47.5132 138.307 47.4125 138.751 47.297C138.984 47.5152 139.198 47.7159 139.494 47.9937C139.183 48.3748 138.926 48.689 138.645 49.0329Z" fill="#D5D5D5"/>
<path fill-rule="evenodd" clip-rule="evenodd" d="M28.1567 67.9595C28.3642 68.1676 28.5373 68.3413 28.7825 68.5872C27.6568 69.5528 26.5371 70.5124 25.4181 71.4726C25.4431 71.5374 25.4687 71.6023 25.4943 71.6665C25.7321 71.5969 26.0224 71.5908 26.1956 71.4449C26.5189 71.1732 26.7736 70.8212 27.2175 70.7333C28.0024 70.2894 28.7872 69.8447 29.5505 69.4123C30.2161 69.9522 29.7304 70.3786 29.4441 71.0333C29.8799 70.8678 30.1622 70.7604 30.466 70.6441C30.5988 70.7772 30.7719 70.9509 30.9457 71.1252C30.9464 71.8611 30.9464 72.5976 30.9464 73.343C30.7322 73.5524 30.5139 73.7673 30.2828 73.993C30.3165 74.0782 30.3252 74.1957 30.3879 74.2417C30.8056 74.5559 31.2226 74.8742 31.6632 75.1539C32.1368 75.4539 32.7997 75.5404 32.8179 76.3087C32.8199 76.3972 32.9695 76.4972 33.0678 76.5668C33.4458 76.8338 33.8884 77.0358 34.1962 77.3662C34.5034 77.6953 34.6779 78.1487 34.9885 78.6812C34.9885 78.9927 34.9885 79.4839 34.9878 79.9745C34.684 80.2786 34.3815 80.5827 34.1282 80.8367C31.8114 80.0063 29.5215 79.186 27.2324 78.3656C26.7237 78.6379 26.176 78.9305 25.6276 79.2231C25.6047 79.186 25.5818 79.1488 25.5589 79.1116C25.0826 79.5887 24.6063 80.0664 23.998 80.6766C23.9892 80.8219 23.9717 81.107 23.9495 81.4706C22.9848 82.401 21.9749 83.3761 21.1604 84.1627C20.7515 85.435 20.959 86.7419 19.2687 87.0102C18.9191 86.4493 17.6633 86.3594 17.9497 85.0519C17.602 84.9512 17.1749 84.8262 16.7094 84.6911C16.6043 84.762 16.415 84.8891 16.2675 84.9877C15.7945 84.4863 15.3816 84.0471 14.7813 83.4099C14.6473 82.2605 14.4755 80.7894 14.2949 79.2414C15.8208 77.5865 17.3245 75.956 18.9198 74.2255C18.2959 73.8335 17.6526 73.5058 17.1015 73.0632C16.5316 72.6051 16.0512 72.0348 15.517 71.4989C15.6645 71.0212 15.8148 70.534 15.9764 70.0076C15.6773 69.9049 15.4638 69.8312 15.1983 69.7393V68.4947C15.3007 68.3913 15.4308 68.2615 15.581 68.1102C16.1065 68.0054 16.6582 67.8953 17.34 67.7588C19.1549 68.7805 21.1396 69.8975 23.0703 70.9833C25.0065 70.2448 26.2616 68.5413 28.1567 67.9595Z" fill="#D5D5D5"/>
</svg>
