<svg width="125" height="45" viewBox="0 0 125 45" fill="none" xmlns="http://www.w3.org/2000/svg">
<g clip-path="url(#clip0_8_302)">
<path d="M120.42 43.875H4.45576C1.99502 43.875 0 42.1527 0 40.0277V12.5166C0 10.4546 1.88372 8.75851 4.27035 8.67264L120.234 4.5034C122.765 4.41243 124.875 6.15974 124.875 8.34733V40.0284C124.876 42.1524 122.881 43.875 120.42 43.875Z" fill="#11BDCF"/>
<path d="M19.4669 29.3206V34.9965C19.4673 35.0438 19.4561 35.0905 19.4343 35.1324C19.4124 35.1744 19.3806 35.2104 19.3416 35.2371C17.6574 36.3791 15.0888 37.1897 12.9466 37.1897C8.17316 37.1897 4.56494 33.7384 4.56494 29.167C4.56494 24.6184 8.26243 21.1898 13.2147 21.1898C15.4425 21.1898 17.7943 22.0096 19.4062 23.3351C19.4644 23.3845 19.5007 23.455 19.5071 23.5311C19.5135 23.6072 19.4896 23.6827 19.4406 23.7412L17.5684 26.0062C17.5441 26.0353 17.5143 26.0592 17.4807 26.0766C17.447 26.094 17.4103 26.1046 17.3725 26.1076C17.3348 26.1106 17.2968 26.1061 17.2609 26.0942C17.2249 26.0824 17.1916 26.0635 17.1631 26.0387C16.0416 25.1002 14.5571 24.5283 13.1919 24.5283C10.6153 24.5283 8.64363 26.5455 8.64363 29.167C8.64363 31.834 10.6372 33.8504 13.2366 33.8504C13.9973 33.8504 14.9554 33.5923 15.8515 33.1687C15.9008 33.1448 15.9424 33.1075 15.9714 33.0611C16.0005 33.0146 16.0158 32.9609 16.0156 32.9061V29.3206C16.0156 29.2828 16.023 29.2454 16.0375 29.2105C16.052 29.1756 16.0732 29.1439 16.0999 29.1172C16.1266 29.0905 16.1583 29.0694 16.1933 29.0549C16.2282 29.0405 16.2656 29.0331 16.3034 29.0331H19.1791C19.2169 29.0331 19.2543 29.0405 19.2892 29.0549C19.3241 29.0694 19.3559 29.0905 19.3826 29.1172C19.4093 29.1439 19.4305 29.1756 19.445 29.2105C19.4594 29.2454 19.4669 29.2828 19.4669 29.3206Z" fill="#113255"/>
<path d="M30.2711 32.5956H27.133V37.0109H23.145V21.3239H30.1591C34.3037 21.3239 36.6791 23.2967 36.6791 26.7917C36.6791 29.1898 35.6713 30.9156 33.8338 31.8341L37.1274 37.0109H32.601L30.2711 32.5956ZM30.1602 29.4587C31.8849 29.4587 32.8937 28.5849 32.8937 26.9265C32.8937 25.2908 31.8849 24.461 30.1602 24.461H27.133V29.4587H30.1602Z" fill="#113255"/>
<path d="M43.8308 34.119L42.6881 37.0109H38.5869L45.3556 21.3239H49.4559L56.0655 37.0109H51.8085L50.688 34.1196L43.8308 34.119ZM47.2824 25.2902L44.9952 31.0941H49.5225L47.2824 25.2902Z" fill="#113255"/>
<path d="M65.1661 21.3239C70.0961 21.3239 73.502 24.5065 73.502 29.1671C73.502 33.8058 70.0507 37.0103 65.0091 37.0103H58.4207V21.3239H65.1661ZM62.4098 33.8285H65.2553C67.6981 33.8285 69.4457 31.9461 69.4457 29.1898C69.4457 26.4108 67.6088 24.5065 65.0768 24.5065H62.4098V33.8285Z" fill="#113255"/>
<path d="M80.4961 24.461V27.5763H87.9815V30.7132H80.4961V33.8737H89.035V37.0109H76.5078V21.3239H88.7874V24.461H80.4961Z" fill="#113255"/>
<path d="M103.154 33.6719V37.0109H92.5103V21.3239H96.4983V33.6719H103.154Z" fill="#113255"/>
<path d="M114.047 37.0109H110.081V32.0581L104.277 21.3239H108.265L112.052 28.1585L115.75 21.3239H119.738L114.047 31.9461V37.0109Z" fill="#113255"/>
</g>
<defs>
<clipPath id="clip0_8_302">
<rect width="124.735" height="45" fill="white"/>
</clipPath>
</defs>
</svg>
